<svg width="19" height="14" viewBox="0 0 19 14" fill="none" xmlns="http://www.w3.org/2000/svg">
<path d="M9.2285 7.68275L9.34976 7.62183L9.42358 7.50798C9.45557 7.45864 9.48812 7.40819 9.52135 7.3567C10.3132 6.12949 11.4874 4.30977 14.5858 2.75327L17.7133 1.18211L18.1622 2.07569L15.0347 3.64685C13.9085 4.21258 12.9027 4.89118 12.0309 5.56938L12.0289 5.5709C10.4336 6.8245 9.41149 8.56891 8.65755 10.3404L8.65462 10.3473L8.6519 10.3542C8.35341 11.1183 7.78228 11.7666 7.00089 12.1591L6.10731 12.608C4.53096 13.3999 2.643 12.8899 1.6647 11.4825L9.2285 7.68275ZM1.62884 9.26236L0.731039 7.4752L2.5182 6.57739L3.41601 8.36455L1.62884 9.26236ZM5.20317 7.46675L4.30536 5.67959L6.09252 4.78178L6.99033 6.56894L5.20317 7.46675ZM0.722589 3.00307L2.50975 2.10527L3.40755 3.89243L1.62039 4.79023L0.722589 3.00307Z" stroke="black"/>
</svg>
